<svg height="496pt" viewBox="0 0 496 496" width="496pt" xmlns="http://www.w3.org/2000/svg"><g fill="#f0bc5e"><path d="m440 152-45.65625 45.65625 48 48 45.65625-45.65625c0-26.503906-21.496094-48-48-48zm0 0"/><path d="m312 80c-13.230469 0-24-10.769531-24-24s10.769531-24 24-24 24 10.769531 24 24-10.769531 24-24 24zm0 0"/><path d="m248 80c-13.230469 0-24-10.769531-24-24s10.769531-24 24-24 24 10.769531 24 24-10.769531 24-24 24zm0 0"/><path d="m184 80c-13.230469 0-24-10.769531-24-24s10.769531-24 24-24 24 10.769531 24 24-10.769531 24-24 24zm0 0"/><path d="m240 232h96v-136h-208v32h-96v32h208zm0 0"/><path d="m32 360h136v96h-136zm0 0"/></g><path d="m496 200c0-30.878906-25.121094-56-56-56h-3.3125l-68.6875 68.6875v-212.6875h-283.3125l-84.6875 84.6875v411.3125h368v-164.6875l128-128zm-290.34375 208.96875 25.375 25.375-29.597656 4.230469zm42.34375 19.71875-12.6875-12.6875 164.6875-164.6875 12.6875 12.6875zm-24-24-12.6875-12.6875 164.6875-164.6875 12.6875 12.6875zm-144-377.375v52.6875h-52.6875zm272 452.6875h-336v-384h80v-80h256v212.6875l-159.542969 159.542969-9.890625 69.203125 69.203125-9.890625 100.230469-100.230469zm72-227.3125-36.6875-36.6875 55.871094-55.871094c19.519531 1.542969 35.144531 17.167969 36.6875 36.6875zm0 0"/><path d="m128 96h208v16h-208zm0 0"/><path d="m32 128h304v16h-304zm0 0"/><path d="m32 448h136v16h-136zm0 0"/><path d="m152 416h16v16h-16zm0 0"/><path d="m32 416h104v16h-104zm0 0"/><path d="m32 384h136v16h-136zm0 0"/><path d="m32 352h136v16h-136zm0 0"/><path d="m224 160h-192v176h192zm-16 160h-160v-144h160zm0 0"/><path d="m240 160h96v16h-96zm0 0"/><path d="m240 192h96v16h-96zm0 0"/><path d="m240 224h96v16h-96zm0 0"/><path d="m64 272h16v16h-16zm0 0"/><path d="m80 208h32v-16h-48v64h16zm0 0"/><path d="m336 392h-16v56h-16v16h32zm0 0"/><path d="m272 448h16v16h-16zm0 0"/></svg>